name rise36.2859peak64.2979fall75.1499.mot
datacolumns 19
datarows 21
range 18.47326500000000 18.50659900000000
endheader
time	ground_force1_vx	ground_force1_vy	ground_force1_vz	ground_force1_px	ground_force1_py	ground_force1_pz	ground_force2_vx	ground_force2_vy	ground_force2_vz	ground_force2_px	ground_force2_py	ground_force2_pz	ground_torque1_x	ground_torque1_y	ground_torque1_z	ground_torque2_x	ground_torque2_y	ground_torque2_z	
18.47326500000000	16.62964100000000	700.45324000000005	41.45908600000000	0.33109100000000	0.00000000000000	0.08734100000000	0.00000000000000	0.00000000000000	0.00000000000000	0.00000000000000	0.00000000000000	0.00000000000000	0.00000000000000	24.55562400000000	0.00000000000000	0.00000000000000	0.00000000000000	0.00000000000000	
18.47492600000000	16.36932500000000	701.30469400000004	41.47202800000000	0.33009400000000	0.00000000000000	0.08729800000000	0.00000000000000	0.00000000000000	0.00000000000000	0.00000000000000	0.00000000000000	0.00000000000000	0.00000000000000	24.56497700000000	0.00000000000000	0.00000000000000	0.00000000000000	0.00000000000000	
18.47662300000000	16.10199600000000	702.18457400000000	41.49018300000000	0.32911300000000	0.00000000000000	0.08725400000000	0.00000000000000	0.00000000000000	0.00000000000000	0.00000000000000	0.00000000000000	0.00000000000000	0.00000000000000	24.58019700000000	0.00000000000000	0.00000000000000	0.00000000000000	0.00000000000000	
18.47825900000000	15.82734600000000	703.09047499999997	41.51329000000000	0.32814800000000	0.00000000000000	0.08721100000000	0.00000000000000	0.00000000000000	0.00000000000000	0.00000000000000	0.00000000000000	0.00000000000000	0.00000000000000	24.60114400000000	0.00000000000000	0.00000000000000	0.00000000000000	0.00000000000000	
18.47992800000000	15.54508800000000	704.02006500000005	41.54109200000000	0.32719900000000	0.00000000000000	0.08716700000000	0.00000000000000	0.00000000000000	0.00000000000000	0.00000000000000	0.00000000000000	0.00000000000000	0.00000000000000	24.62767600000000	0.00000000000000	0.00000000000000	0.00000000000000	0.00000000000000	
18.48159600000000	15.25495800000000	704.97109200000000	41.57333300000000	0.32626600000000	0.00000000000000	0.08712300000000	0.00000000000000	0.00000000000000	0.00000000000000	0.00000000000000	0.00000000000000	0.00000000000000	0.00000000000000	24.65965100000000	0.00000000000000	0.00000000000000	0.00000000000000	0.00000000000000	
18.48325900000000	14.95671200000000	705.94139199999995	41.60976500000000	0.32534900000000	0.00000000000000	0.08707800000000	0.00000000000000	0.00000000000000	0.00000000000000	0.00000000000000	0.00000000000000	0.00000000000000	0.00000000000000	24.69692200000000	0.00000000000000	0.00000000000000	0.00000000000000	0.00000000000000	
18.48493100000000	14.65012700000000	706.92889500000001	41.65014500000000	0.32444800000000	0.00000000000000	0.08703300000000	0.00000000000000	0.00000000000000	0.00000000000000	0.00000000000000	0.00000000000000	0.00000000000000	0.00000000000000	24.73934400000000	0.00000000000000	0.00000000000000	0.00000000000000	0.00000000000000	
18.48659600000000	14.33500600000000	707.93162900000004	41.69423400000000	0.32356200000000	0.00000000000000	0.08698700000000	0.00000000000000	0.00000000000000	0.00000000000000	0.00000000000000	0.00000000000000	0.00000000000000	0.00000000000000	24.78677000000000	0.00000000000000	0.00000000000000	0.00000000000000	0.00000000000000	
18.48826300000000	14.01117000000000	708.94773099999998	41.74180300000000	0.32269200000000	0.00000000000000	0.08694100000000	0.00000000000000	0.00000000000000	0.00000000000000	0.00000000000000	0.00000000000000	0.00000000000000	0.00000000000000	24.83905200000000	0.00000000000000	0.00000000000000	0.00000000000000	0.00000000000000	
18.48993100000000	13.67846800000000	709.97544300000004	41.79263000000000	0.32183600000000	0.00000000000000	0.08689400000000	0.00000000000000	0.00000000000000	0.00000000000000	0.00000000000000	0.00000000000000	0.00000000000000	0.00000000000000	24.89604200000000	0.00000000000000	0.00000000000000	0.00000000000000	0.00000000000000	
18.49159500000000	13.33676800000000	711.01312399999995	41.84650300000000	0.32099500000000	0.00000000000000	0.08684600000000	0.00000000000000	0.00000000000000	0.00000000000000	0.00000000000000	0.00000000000000	0.00000000000000	0.00000000000000	24.95759300000000	0.00000000000000	0.00000000000000	0.00000000000000	0.00000000000000	
18.49326300000000	12.98596300000000	712.05924700000003	41.90321900000000	0.32016900000000	0.00000000000000	0.08679800000000	0.00000000000000	0.00000000000000	0.00000000000000	0.00000000000000	0.00000000000000	0.00000000000000	0.00000000000000	25.02355500000000	0.00000000000000	0.00000000000000	0.00000000000000	0.00000000000000	
18.49492900000000	12.62597000000000	713.11240499999997	41.96258500000000	0.31935500000000	0.00000000000000	0.08674900000000	0.00000000000000	0.00000000000000	0.00000000000000	0.00000000000000	0.00000000000000	0.00000000000000	0.00000000000000	25.09378300000000	0.00000000000000	0.00000000000000	0.00000000000000	0.00000000000000	
18.49659200000000	12.25672900000000	714.17131400000005	42.02442300000000	0.31855500000000	0.00000000000000	0.08670000000000	0.00000000000000	0.00000000000000	0.00000000000000	0.00000000000000	0.00000000000000	0.00000000000000	0.00000000000000	25.16813000000000	0.00000000000000	0.00000000000000	0.00000000000000	0.00000000000000	
18.49826600000000	11.87820300000000	715.23481000000004	42.08856200000000	0.31776700000000	0.00000000000000	0.08665000000000	0.00000000000000	0.00000000000000	0.00000000000000	0.00000000000000	0.00000000000000	0.00000000000000	0.00000000000000	25.24645000000000	0.00000000000000	0.00000000000000	0.00000000000000	0.00000000000000	
18.49992800000000	11.49037900000000	716.30185300000005	42.15484800000000	0.31699100000000	0.00000000000000	0.08659900000000	0.00000000000000	0.00000000000000	0.00000000000000	0.00000000000000	0.00000000000000	0.00000000000000	0.00000000000000	25.32860000000000	0.00000000000000	0.00000000000000	0.00000000000000	0.00000000000000	
18.50159400000000	11.09327100000000	717.37152600000002	42.22313800000000	0.31622700000000	0.00000000000000	0.08654800000000	0.00000000000000	0.00000000000000	0.00000000000000	0.00000000000000	0.00000000000000	0.00000000000000	0.00000000000000	25.41443500000000	0.00000000000000	0.00000000000000	0.00000000000000	0.00000000000000	
18.50325900000000	10.68691100000000	718.44303500000001	42.29330500000000	0.31547200000000	0.00000000000000	0.08649600000000	0.00000000000000	0.00000000000000	0.00000000000000	0.00000000000000	0.00000000000000	0.00000000000000	0.00000000000000	25.50381600000000	0.00000000000000	0.00000000000000	0.00000000000000	0.00000000000000	
18.50492900000000	10.27136000000000	719.51570500000003	42.36523600000000	0.31472800000000	0.00000000000000	0.08644400000000	0.00000000000000	0.00000000000000	0.00000000000000	0.00000000000000	0.00000000000000	0.00000000000000	0.00000000000000	25.59660100000000	0.00000000000000	0.00000000000000	0.00000000000000	0.00000000000000	
18.50659900000000	9.84670000000000	720.58898199999999	42.43883200000000	0.31399200000000	0.00000000000000	0.08639100000000	0.00000000000000	0.00000000000000	0.00000000000000	0.00000000000000	0.00000000000000	0.00000000000000	0.00000000000000	25.69265400000000	0.00000000000000	0.00000000000000	0.00000000000000	0.00000000000000	
